<svg width="72" height="72" viewBox="0 0 72 72" fill="none" xmlns="http://www.w3.org/2000/svg">
<path d="M36 6C52.569 6 66 19.431 66 36C66 52.569 52.569 66 36 66C19.431 66 6 52.569 6 36C6 19.431 19.431 6 36 6ZM46.605 25.143L31.755 39.993L25.395 33.63C25.1165 33.3513 24.7858 33.1301 24.4218 32.9792C24.0578 32.8283 23.6676 32.7505 23.2736 32.7504C22.4778 32.7501 21.7144 33.066 21.1515 33.6285C20.5886 34.191 20.2722 34.9541 20.2719 35.7499C20.2716 36.5457 20.5875 37.3091 21.15 37.872L29.424 46.146C29.7305 46.4526 30.0943 46.6958 30.4948 46.8618C30.8953 47.0277 31.3245 47.1131 31.758 47.1131C32.1915 47.1131 32.6207 47.0277 33.0212 46.8618C33.4217 46.6958 33.7855 46.4526 34.092 46.146L50.85 29.388C51.4129 28.8251 51.7292 28.0616 51.7292 27.2655C51.7292 26.4694 51.4129 25.7059 50.85 25.143C50.2871 24.5801 49.5236 24.2638 48.7275 24.2638C47.9314 24.2638 47.1679 24.5801 46.605 25.143Z" fill="#20A96F"/>
</svg>
