<svg width="16" height="16" viewBox="0 0 16 16" fill="none" xmlns="http://www.w3.org/2000/svg">
<path d="M14.8334 7.99996C14.8203 7.53014 14.677 7.07269 14.4189 6.67923C14.1614 6.2865 13.7992 5.97232 13.373 5.77305C13.5352 5.33159 13.5694 4.85378 13.4749 4.39341C13.3796 3.93232 13.157 3.50759 12.8334 3.1665C12.4916 2.84287 12.0676 2.62105 11.6065 2.52505C11.1461 2.4305 10.6683 2.46469 10.2269 2.62687C10.0283 2.19996 9.71487 1.83705 9.32141 1.57959C8.92796 1.32214 8.4705 1.17814 7.99996 1.1665C7.53014 1.17887 7.07414 1.32141 6.68141 1.57959C6.28869 1.83778 5.97669 2.20069 5.77959 2.62687C5.33741 2.46469 4.85814 2.42905 4.39632 2.52505C3.9345 2.61959 3.50905 2.84214 3.16723 3.1665C2.84359 3.50832 2.6225 3.93378 2.52869 4.39414C2.43414 4.8545 2.4705 5.33232 2.63341 5.77305C2.2065 5.97232 1.84287 6.28578 1.58396 6.6785C1.32505 7.07123 1.18032 7.52941 1.1665 7.99996C1.18105 8.4705 1.32505 8.92796 1.58396 9.32141C1.84287 9.71414 2.2065 10.0283 2.63341 10.2269C2.4705 10.6676 2.43414 11.1454 2.52869 11.6058C2.62323 12.0669 2.84359 12.4916 3.1665 12.8334C3.50832 13.1556 3.93305 13.3767 4.39341 13.472C4.85378 13.568 5.33159 13.533 5.77305 13.373C5.97232 13.7992 6.28578 14.1614 6.67923 14.4196C7.07196 14.677 7.53014 14.8203 7.99996 14.8334C8.4705 14.8218 8.92796 14.6785 9.32141 14.4211C9.71487 14.1636 10.0283 13.8 10.2269 13.3738C10.6661 13.5476 11.1476 13.589 11.6109 13.493C12.0734 13.397 12.4981 13.168 12.8327 12.8334C13.1672 12.4989 13.397 12.0741 13.493 11.6109C13.589 11.1476 13.5476 10.6661 13.373 10.2269C13.7992 10.0276 14.1614 9.71414 14.4196 9.32069C14.677 8.92796 14.8203 8.46978 14.8334 7.99996ZM7.02687 10.8L4.53305 8.30687L5.47341 7.35996L6.98032 8.86687L10.1803 5.38032L11.16 6.2865L7.02687 10.8Z" fill="white"/>
</svg>
