<svg width="28" height="28" viewBox="0 0 28 28" fill="none" xmlns="http://www.w3.org/2000/svg">
<path d="M21 2.33337C21.6189 2.33337 22.2124 2.57921 22.6499 3.01679C23.0875 3.45438 23.3334 4.04787 23.3334 4.66671V24.5C23.3334 25.1189 23.0875 25.7124 22.6499 26.15C22.2124 26.5875 21.6189 26.8334 21 26.8334H7.00002C6.38118 26.8334 5.78769 26.5875 5.3501 26.15C4.91252 25.7124 4.66669 25.1189 4.66669 24.5V4.66671C4.66669 4.04787 4.91252 3.45438 5.3501 3.01679C5.78769 2.57921 6.38118 2.33337 7.00002 2.33337H21ZM21 4.66671H7.00002V24.5H21V4.66671ZM16.3334 18.6667C16.6428 18.6667 16.9395 18.7896 17.1583 19.0084C17.3771 19.2272 17.5 19.524 17.5 19.8334C17.5 20.1428 17.3771 20.4395 17.1583 20.6583C16.9395 20.8771 16.6428 21 16.3334 21H11.6667C11.3573 21 11.0605 20.8771 10.8417 20.6583C10.6229 20.4395 10.5 20.1428 10.5 19.8334C10.5 19.524 10.6229 19.2272 10.8417 19.0084C11.0605 18.7896 11.3573 18.6667 11.6667 18.6667H16.3334ZM14 7.00004C15.2377 7.00004 16.4247 7.49171 17.2999 8.36688C18.175 9.24204 18.6667 10.429 18.6667 11.6667C18.6667 12.9044 18.175 14.0914 17.2999 14.9665C16.4247 15.8417 15.2377 16.3334 14 16.3334C12.7623 16.3334 11.5754 15.8417 10.7002 14.9665C9.82502 14.0914 9.33335 12.9044 9.33335 11.6667C9.33335 10.429 9.82502 9.24204 10.7002 8.36688C11.5754 7.49171 12.7623 7.00004 14 7.00004ZM14 9.33337C13.3812 9.33337 12.7877 9.57921 12.3501 10.0168C11.9125 10.4544 11.6667 11.0479 11.6667 11.6667C11.6667 12.2855 11.9125 12.879 12.3501 13.3166C12.7877 13.7542 13.3812 14 14 14C14.6189 14 15.2124 13.7542 15.6499 13.3166C16.0875 12.879 16.3334 12.2855 16.3334 11.6667C16.3334 11.0479 16.0875 10.4544 15.6499 10.0168C15.2124 9.57921 14.6189 9.33337 14 9.33337Z" fill="#6E7379"/>
</svg>
